# xmcd
#
# Track frame offsets: 
#        150
#        18523
#        52389
#        78909
#        99611
#        125198
#        155366
#        178316
#        209020
#        230040
#        250987
#        276332
#        304146
#        343511
#
# Disc length: 4795 seconds
#
# Revision: 2
# Processed by: cddbd v1.5.2PL0 Copyright (c) Steve Scherf et al.
# Submitted via: ExactAudioCopy v1.0b3
#
DISCID=d912b90e
DTITLE=Al Madfai, Ilham - Baghdad
DYEAR=1900
DGENRE=Iraqi
TTITLE0=El tufah
TTITLE1=Chathab
TTITLE2=Mohamad bouya Mohamad
TTITLE3=La laila wala youm
TTITLE4=Masaal
TTITLE5=Ana blayak
TTITLE6=Shlonak
TTITLE7=Win ya galob
TTITLE8=Abu noonah
TTITLE9=Mo hiya
TTITLE10=Eidi ya mahbobi
TTITLE11=Maghribiah
TTITLE12=Baghdad
TTITLE13=Data Track
EXTD=
EXTT0=
EXTT1=
EXTT2=
EXTT3=
EXTT4=
EXTT5=
EXTT6=
EXTT7=
EXTT8=
EXTT9=
EXTT10=
EXTT11=
EXTT12=
EXTT13=
PLAYORDER=
